PathFileType	4	(X/Y/Z)	C:\Users\Basilio\Documents\Thesis Gigler\squatting_fais\c3dfiles\047\SJ_pre1\markers_experimental.trc
DataRate	CameraRate	NumFrames	NumMarkers	Units	OrigDataRate	OrigDataStartFrame	OrigNumFrames
200.000000	200.000000	4	61	mm	200.000000	206	1653
Frame#	Time	FHD			LBHD			RBHD			C7			T10			CLAV			LSHO			LUUPA			LMUPA			LDUPA			LLEP			LMEP			LRAD			LUL			LRFIN			RSHO			RUPA1			RMUPA			RDUPA			RLEP			RMEP			RRAD			RUL			RUFIN			LASI			RASI			USACR			LSACR			RSACR			LTHI1			LTHI2			LTHI3			LTHI4			LLFC			LMFC			LTIB1			LTIB2			LTIB3			LTIB4			LLMAL			LMMAL			LMT1			LMT2			LMT5			RTHI			RTHI2			RTHI3			RTHI4			RLFC			RMFC			RTIB1			RTIB2			RTIB3			RTIB4			RLMAL			RMMAL			RHEE			RMT1			RMT2			RMT5			*60			
		X1	Y1	Z1	X2	Y2	Z2	X3	Y3	Z3	X4	Y4	Z4	X5	Y5	Z5	X6	Y6	Z6	X7	Y7	Z7	X8	Y8	Z8	X9	Y9	Z9	X10	Y10	Z10	X11	Y11	Z11	X12	Y12	Z12	X13	Y13	Z13	X14	Y14	Z14	X15	Y15	Z15	X16	Y16	Z16	X17	Y17	Z17	X18	Y18	Z18	X19	Y19	Z19	X20	Y20	Z20	X21	Y21	Z21	X22	Y22	Z22	X23	Y23	Z23	X24	Y24	Z24	X25	Y25	Z25	X26	Y26	Z26	X27	Y27	Z27	X28	Y28	Z28	X29	Y29	Z29	X30	Y30	Z30	X31	Y31	Z31	X32	Y32	Z32	X33	Y33	Z33	X34	Y34	Z34	X35	Y35	Z35	X36	Y36	Z36	X37	Y37	Z37	X38	Y38	Z38	X39	Y39	Z39	X40	Y40	Z40	X41	Y41	Z41	X42	Y42	Z42	X43	Y43	Z43	X44	Y44	Z44	X45	Y45	Z45	X46	Y46	Z46	X47	Y47	Z47	X48	Y48	Z48	X49	Y49	Z49	X50	Y50	Z50	X51	Y51	Z51	X52	Y52	Z52	X53	Y53	Z53	X54	Y54	Z54	X55	Y55	Z55	X56	Y56	Z56	X57	Y57	Z57	X58	Y58	Z58	X59	Y59	Z59	X60	Y60	Z60	X61	Y61	Z61	

207	1.03	-119.1356811523438	1654.019775390625	-809.8003540039065	-204.5026245117188	1650.134765625	-970.9898071289065	-307.3568725585938	1663.300903320313	-865.3775634765627	-350.6441040039063	1497.149169921875	-901.9287719726565	-422.0220336914064	1174.790893554688	-881.9580688476565	-215.7854003906251	1405.759521484375	-893.2075805664065	-269.0595397949219	1441.48291015625	-1073.959350585938	-387.8417053222657	1337.643310546875	-1196.895141601563	-351.2671813964844	1307.266235351563	-1216.700561523438	-402.8506469726564	1284.48388671875	-1239.261474609375	-398.0899658203126	1218.131103515625	-1272.912109375	-459.3684387207032	1195.4296875	-1199.24658203125	-307.0826110839844	1065.395385742188	-1091.953125	-271.7033996582032	1026.902465820313	-1149.690307617188	-247.2321166992188	1053.962768554688	-1054.800537109375	-283.2906799316407	1459.536499023438	-731.2247314453126	-398.6129455566407	1352.572631835938	-591.6342773437501	-364.3226623535157	1321.514892578125	-573.5502929687501	-413.1453247070314	1298.971923828125	-548.1380615234376	-405.0340270996095	1230.77490234375	-515.5061035156251	-467.442108154297	1202.531005859375	-577.5865478515626	-300.0656433105469	1072.241088867188	-687.0965576171876	-270.7381286621094	1038.939453125	-626.9118041992189	-239.258773803711	1055.87109375	-716.9817504882814	-235.3888549804688	947.764587402344	-1006.252807617188	-227.1413116455079	953.1833496093752	-776.0747070312502	-416.1383666992189	1031.999389648438	-887.9998779296877	-422.1226501464845	1001.006103515625	-916.581481933594	-417.0871887207032	1000.451416015625	-858.7575683593752	-345.0404052734376	810.8201293945315	-1084.273803710938	-317.9339599609376	732.9544067382814	-1101.766479492188	-268.4500122070313	731.1847534179689	-1094.77490234375	-349.8220214843751	680.7598266601564	-1102.65185546875	-385.4989318847657	507.6539916992189	-1091.932495117188	-328.8727416992188	472.9690856933595	-986.983581542969	-339.6343383789063	311.9178466796876	-1054.348266601563	-373.5290222167969	281.8170166015626	-1130.311889648438	-342.3660583496094	271.9447021484376	-1097.044921875	-348.0054931640626	189.4634246826172	-1082.736938476563	-408.7253417968751	96.79747009277347	-1136.206787109375	-365.6926879882813	100.1043701171875	-1056.530639648438	-244.7717742919922	63.35924530029298	-1116.8916015625	-255.9547729492188	63.4423294067383	-1160.310791015625	-306.1652526855469	43.64489364624024	-1196.22216796875	-348.2052917480469	786.3146972656252	-687.6382446289064	-317.3439636230469	729.1097412109376	-673.0657348632814	-284.1777954101563	727.6306152343751	-675.8674316406251	-350.5673828125001	651.2973022460939	-678.9351806640626	-362.1905517578126	500.1154174804689	-685.8532104492189	-314.9939575195313	479.6590576171876	-800.0156860351565	-332.4465637207032	372.1318359375001	-686.7235107421876	-401.9734191894532	293.6896667480469	-656.7949218750001	-355.3973999023438	292.5513305664063	-661.9841918945314	-339.2633056640626	241.9277496337891	-689.9097290039064	-406.1226501464845	90.73952484130861	-666.5135498046876	-359.8637390136719	104.9421844482422	-747.2927246093751	-446.9309692382814	51.05630493164064	-727.3008422851564	-236.1382141113282	55.14834213256837	-696.3276367187501	-245.4987182617188	58.68567657470705	-651.0614624023439	-301.9125366210938	30.7259864807129	-604.3812255859376	nan	nan	nan	
208	1.035	-119.0652618408203	1654.0791015625	-810.1199340820315	-204.8627471923829	1650.252807617188	-971.0778808593752	-307.3810729980469	1663.326049804688	-865.191345214844	-350.7350463867188	1497.140502929688	-901.8847656250002	-422.1004028320314	1174.84619140625	-881.915710449219	-215.6914215087891	1405.85595703125	-893.3797607421877	-269.2560729980469	1441.570556640625	-1073.941772460938	-387.9759826660157	1337.737426757813	-1196.900024414063	-351.9061279296876	1307.185668945313	-1216.377563476563	-403.0013427734376	1284.476806640625	-1239.210083007813	-398.2106933593751	1218.14208984375	-1272.948608398438	-459.533905029297	1195.433227539063	-1199.19921875	-307.2549438476563	1065.347412109375	-1092.012939453125	-271.9674987792969	1026.873901367188	-1149.70458984375	-247.6767883300782	1053.790771484375	-1054.685302734375	-283.2084350585938	1459.514770507813	-731.2792358398439	-398.5332336425782	1352.581909179688	-591.6511840820314	-364.2716369628907	1321.48828125	-573.5032958984376	-413.0474243164064	1298.9306640625	-548.0701904296876	-404.9818115234376	1230.770263671875	-515.4881591796876	-467.4157714843751	1202.51806640625	-577.5624389648439	-299.9724731445313	1072.241821289063	-687.1534423828126	-270.6768493652344	1038.90771484375	-627.0135498046876	-239.2977142333985	1055.814086914063	-717.0272827148439	-235.4514923095704	947.7326660156252	-1006.27392578125	-227.1621551513672	953.1895751953127	-776.119567871094	-416.212860107422	1032.01611328125	-887.951843261719	-422.1700439453126	1001.005981445313	-916.6021728515627	-417.1113891601564	1000.467712402344	-858.7476806640627	-345.1142272949219	810.8289184570315	-1084.286254882813	-318.0262145996094	732.8668823242189	-1101.844116210938	-268.5072326660157	731.2194213867189	-1094.814453125	-349.8282470703126	680.7345581054689	-1102.657958984375	-385.628631591797	507.6239318847657	-1091.99267578125	-328.8832092285157	472.9520568847657	-987.007019042969	-339.6856994628907	311.9034118652344	-1054.349487304688	-373.4911193847657	281.7636413574219	-1130.325805664063	-342.4438171386719	271.8770751953126	-1097.005981445313	-347.9815673828126	189.4746551513672	-1082.6796875	-409.1202392578126	97.17724609375003	-1136.017456054688	-365.7151794433594	100.1033172607422	-1056.529174804688	-244.7548065185547	63.33519363403322	-1116.851806640625	-256.3825988769532	63.66267013549806	-1160.3671875	-306.1008605957032	43.6598014831543	-1196.195068359375	-348.2011108398438	786.295349121094	-687.6455078125001	-317.2838745117188	729.0972290039064	-673.0597534179689	-284.1357421875001	727.6766967773439	-675.9865112304689	-350.5299987792969	651.2407226562501	-678.8964843750001	-362.1777038574219	500.101287841797	-685.7717895507814	-314.8226318359376	479.7121582031251	-799.9711914062502	-332.4259643554688	372.1242065429688	-686.6175537109376	-401.9260559082032	293.7427368164063	-656.7777709960939	-355.3045043945313	292.5169677734376	-662.0080566406251	-339.1879577636719	241.909652709961	-689.9398193359376	-406.0451049804689	90.64228820800783	-666.3601684570314	-359.7847290039063	104.9360427856446	-747.3104248046876	-446.842254638672	51.04985809326173	-727.3701171875001	-236.1572570800782	55.12466430664064	-696.3094482421876	-245.5179901123047	58.65702438354494	-651.0661621093751	-301.8510742187501	30.77691841125489	-604.3800048828126	nan	nan	nan	
209	1.04	-119.0724334716797	1653.907348632813	-810.2634887695315	-205.072982788086	1650.281372070313	-971.132019042969	-307.3654174804688	1663.408935546875	-865.0789184570315	-350.7582702636719	1497.150512695313	-901.889343261719	-422.0796508789064	1174.819702148438	-881.9310302734377	-215.7869567871094	1405.853637695313	-893.4422607421877	-269.4800415039063	1441.477905273438	-1073.8828125	-388.1309204101564	1337.715209960938	-1196.859252929688	-351.9857482910157	1307.18798828125	-1216.342041015625	-403.098602294922	1284.480102539063	-1239.225952148438	-398.4664001464845	1218.1953125	-1272.892211914063	-459.7235107421876	1195.493286132813	-1199.154174804688	-307.4494018554688	1065.368041992188	-1092.02978515625	-272.0963134765626	1026.881713867188	-1149.772216796875	-247.8304443359376	1053.737182617188	-1054.780151367188	-283.0236816406251	1459.497924804688	-731.4229736328126	-398.5302124023439	1352.545654296875	-591.5518188476564	-364.1978149414063	1321.373291015625	-573.5520629882814	-413.014862060547	1298.90869140625	-548.0609741210939	-404.9622192382814	1230.75927734375	-515.4075927734376	-467.3286132812501	1202.547607421875	-577.4770507812501	-300.1005249023438	1072.16748046875	-687.1088256835939	-270.7285156250001	1038.82568359375	-626.9666137695314	-239.3242645263672	1055.752563476563	-717.1049804687501	-235.4072418212891	947.7694091796877	-1006.43212890625	-227.1644287109376	953.217468261719	-776.1370849609377	-416.2109375000001	1031.958374023438	-887.9764404296877	-422.1918029785157	1001.016784667969	-916.596862792969	-417.1333618164064	1000.488098144531	-858.7380981445315	-345.1642150878907	810.7717895507815	-1084.2998046875	-318.1193847656251	732.8359985351564	-1101.906372070313	-268.5699157714844	731.1942749023439	-1094.828247070313	-349.9187011718751	680.7581176757814	-1102.700317382813	-385.6155395507814	507.6273803710939	-1091.984252929688	-328.8869934082032	472.9622192382814	-987.0098876953127	-339.6693725585938	311.9510498046876	-1054.314819335938	-373.4254760742188	282.1522827148438	-1130.271118164063	-342.5540161132813	271.7686462402344	-1097.008544921875	-348.0281677246094	189.4419097900391	-1082.776977539063	-408.9920043945314	97.0893478393555	-1136.11279296875	-365.7154541015626	100.0726013183594	-1056.539428710938	-244.7732543945313	63.36510086059572	-1116.894653320313	-256.3862915039063	63.66005706787111	-1160.356323242188	-306.1488037109376	43.65928268432618	-1196.244384765625	-348.1869812011719	786.302917480469	-687.7026977539064	-317.2651672363282	729.0619506835939	-673.0539550781251	-284.1133117675782	727.6749267578126	-675.9163208007814	-350.3796691894532	651.1954956054689	-679.0109252929689	-362.0554504394532	500.1197509765626	-685.8186035156251	-314.7021484375001	479.6998291015626	-800.0569458007815	-332.3586425781251	372.1293640136719	-686.6516723632814	-401.6915588378907	293.7294311523438	-656.9176025390626	-355.2420043945313	292.4940185546876	-661.9531860351564	-339.0943298339844	241.8237457275391	-690.0211181640626	-406.1024475097657	90.63094329833986	-666.3302001953126	-359.7804260253907	104.959098815918	-747.3509521484376	-446.8987426757814	51.0591278076172	-727.2795410156251	-236.1584625244141	55.14072418212892	-696.3065185546876	-245.5022277832032	58.63198852539064	-651.0443115234376	-301.8817749023438	30.73410606384278	-604.3829345703126	nan	nan	nan	
210	1.045	-119.0069580078125	1653.910034179688	-810.4493408203127	-205.3348388671876	1650.3564453125	-971.1881103515627	-307.4403686523438	1663.477905273438	-864.8191528320315	-350.8060302734376	1497.178344726563	-901.8431396484377	-422.119354248047	1174.838623046875	-881.9100341796877	-215.9465942382813	1405.765991210938	-893.4278564453127	-269.7753906250001	1441.487670898438	-1073.78564453125	-388.2747192382814	1337.780395507813	-1196.806274414063	-352.1684570312501	1307.23876953125	-1216.391845703125	-403.3246459960939	1284.49072265625	-1239.158447265625	-398.6570434570314	1218.21533203125	-1272.891967773438	-459.9121704101564	1195.49755859375	-1199.1181640625	-307.5589904785157	1065.345336914063	-1091.99755859375	-272.3476257324219	1026.861206054688	-1149.802490234375	-248.4436035156251	1053.933227539063	-1054.77197265625	-282.9780578613282	1459.470947265625	-731.4567871093751	-398.4431152343751	1352.527954101563	-591.6007690429689	-364.0976867675782	1321.365600585938	-573.5424804687501	-412.9907226562501	1298.838745117188	-547.9961547851564	-404.9387817382814	1230.737426757813	-515.3957519531251	-467.3286132812501	1202.547607421875	-577.4770507812501	-300.0589599609376	1072.153442382813	-687.1640014648439	-270.7255859375001	1038.779296875	-627.0090332031251	-239.3291778564454	1055.683837890625	-717.0740966796876	-235.6466827392579	947.6895141601565	-1006.399047851563	-227.1330108642579	953.181579589844	-776.1419677734377	-416.2703247070314	1031.960693359375	-887.9440917968752	-422.2020263671876	1001.026672363281	-916.5940551757815	-417.1412658691407	1000.515930175781	-858.7484130859377	-345.3193054199219	810.8317871093752	-1084.328369140625	-318.1128845214844	732.8353881835939	-1101.8974609375	-268.6858215332032	731.2284545898439	-1094.8837890625	-350.0129394531251	680.7453002929689	-1102.693359375	-385.658660888672	507.6480407714845	-1091.9990234375	-328.9560852050782	472.9477539062501	-987.0535278320315	-339.5368347167969	312.1303710937501	-1054.379150390625	-373.6006164550782	281.8188781738282	-1130.378173828125	-342.5283508300782	271.8734130859376	-1097.030395507813	-347.9956359863282	189.442855834961	-1082.734008789063	-408.7844238281251	96.76773071289065	-1136.210327148438	-365.7059020996094	100.1168212890625	-1056.533203125	-244.7905578613282	63.39405441284181	-1116.859741210938	-256.4032287597657	63.66238021850587	-1160.2900390625	-306.1632690429688	43.66749572753907	-1196.222778320313	-348.1582641601563	786.3144531250002	-687.6994628906251	-317.1947021484376	729.0829467773439	-673.0653076171876	-284.0844116210938	727.6820678710939	-675.9462890625001	-350.2971496582032	651.1714477539064	-678.9660034179689	-362.0024414062501	500.1231079101564	-685.7556152343751	-314.5830993652344	479.6666870117189	-799.9921875000002	-332.3286437988282	372.1229553222657	-686.6350708007814	-401.6614685058595	293.7384033203126	-656.8688964843751	-355.1553955078126	292.4967041015626	-662.0165405273439	-339.0676879882813	241.8670043945313	-690.0089111328126	-406.0723571777345	90.64186096191408	-666.3202514648439	-359.8157653808594	104.8911437988282	-747.3160400390626	-446.9290771484376	51.06544113159181	-727.3164062500001	-236.1425018310547	55.16068267822267	-696.3335571289064	-245.5024871826172	58.69856643676759	-651.0090332031251	-301.8652954101563	30.74572372436524	-604.3988647460939	nan	nan	nan	
